<svg xmlns:xlink="http://www.w3.org/1999/xlink" xmlns="http://www.w3.org/2000/svg" version="1" viewBox="0 0 32 32" width="12" height="12"><path fill="#FFDF00" fill-rule="evenodd" d="M32 16.053c0 8.795-7.205 15.894-16 15.894s-16-7.1-16-15.894c0-8.9 7.205-16 16-16s16 7.205 16 16z" clip-rule="evenodd" class="colorf37a5d svgShape"></path><path fill="#FFFFFF" d="m26 16.012-3.969-3.651-.476-.635-.635.635-3.651 3.81 1.27 1.27 2.222-2.54c.159.952.159 1.905 0 2.699-.952 3.651-4.604 5.715-8.096 4.762-3.652-.952-5.715-4.604-4.763-8.096.953-3.652 4.604-5.557 8.097-4.763l.476-1.587c-2.223-.635-4.445-.16-6.35.952-1.905 1.111-3.334 2.699-3.81 5.08-1.27 4.445 1.428 9.05 5.873 10.16 4.446 1.112 9.05-1.428 10.16-5.873.318-.953.318-2.064.16-3.017l2.38 2.064L26 16.012z" class="colorfff svgShape"></path></svg>